<mxfile host="Electron" agent="Mozilla/5.0 (X11; Linux x86_64) AppleWebKit/537.36 (KHTML, like Gecko) draw.io/28.2.5 Chrome/138.0.7204.251 Electron/37.5.1 Safari/537.36" version="28.2.5">
  <diagram name="Page-1" id="7m_YdTxGqZWvF4TJzUUr">
    <mxGraphModel dx="2188" dy="1348" grid="1" gridSize="10" guides="1" tooltips="1" connect="1" arrows="1" fold="1" page="1" pageScale="2" pageWidth="850" pageHeight="1100" math="0" shadow="0">
      <root>
        <mxCell id="0" />
        <mxCell id="1" parent="0" />
        <mxCell id="rQWxWww5Zi0VN4n5RXvP-19" style="edgeStyle=orthogonalEdgeStyle;rounded=0;orthogonalLoop=1;jettySize=auto;html=1;entryX=0.5;entryY=0;entryDx=0;entryDy=0;endArrow=open;endFill=0;" parent="1" source="rQWxWww5Zi0VN4n5RXvP-1" target="rQWxWww5Zi0VN4n5RXvP-13" edge="1">
          <mxGeometry relative="1" as="geometry" />
        </mxCell>
        <mxCell id="xzh4shcOTlSQ8mMk62qb-25" style="edgeStyle=orthogonalEdgeStyle;rounded=0;orthogonalLoop=1;jettySize=auto;html=1;" parent="1" source="rQWxWww5Zi0VN4n5RXvP-1" target="rQWxWww5Zi0VN4n5RXvP-20" edge="1">
          <mxGeometry relative="1" as="geometry">
            <Array as="points">
              <mxPoint x="1090" y="512" />
            </Array>
          </mxGeometry>
        </mxCell>
        <mxCell id="xzh4shcOTlSQ8mMk62qb-37" style="edgeStyle=orthogonalEdgeStyle;rounded=0;orthogonalLoop=1;jettySize=auto;html=1;" parent="1" source="rQWxWww5Zi0VN4n5RXvP-1" target="rQWxWww5Zi0VN4n5RXvP-24" edge="1">
          <mxGeometry relative="1" as="geometry" />
        </mxCell>
        <mxCell id="rQWxWww5Zi0VN4n5RXvP-1" value="Square" style="swimlane;fontStyle=1;align=center;verticalAlign=top;childLayout=stackLayout;horizontal=1;startSize=26;horizontalStack=0;resizeParent=1;resizeParentMax=0;resizeLast=0;collapsible=1;marginBottom=0;whiteSpace=wrap;html=1;" parent="1" vertex="1">
          <mxGeometry x="885" y="440" width="175" height="144" as="geometry" />
        </mxCell>
        <mxCell id="rQWxWww5Zi0VN4n5RXvP-2" value="- next_sqrs: Vector&amp;lt;Square&amp;gt;&lt;div&gt;&lt;div&gt;- event: unique_ptr&amp;lt;Event&amp;gt;&lt;/div&gt;&lt;div&gt;- store: unique_ptr&amp;lt;Store&amp;gt;&lt;/div&gt;&lt;/div&gt;" style="text;strokeColor=none;fillColor=none;align=left;verticalAlign=top;spacingLeft=4;spacingRight=4;overflow=hidden;rotatable=0;points=[[0,0.5],[1,0.5]];portConstraint=eastwest;whiteSpace=wrap;html=1;" parent="rQWxWww5Zi0VN4n5RXvP-1" vertex="1">
          <mxGeometry y="26" width="175" height="84" as="geometry" />
        </mxCell>
        <mxCell id="rQWxWww5Zi0VN4n5RXvP-3" value="" style="line;strokeWidth=1;fillColor=none;align=left;verticalAlign=middle;spacingTop=-1;spacingLeft=3;spacingRight=3;rotatable=0;labelPosition=right;points=[];portConstraint=eastwest;strokeColor=inherit;" parent="rQWxWww5Zi0VN4n5RXvP-1" vertex="1">
          <mxGeometry y="110" width="175" height="8" as="geometry" />
        </mxCell>
        <mxCell id="rQWxWww5Zi0VN4n5RXvP-4" value="+&amp;nbsp;" style="text;strokeColor=none;fillColor=none;align=left;verticalAlign=top;spacingLeft=4;spacingRight=4;overflow=hidden;rotatable=0;points=[[0,0.5],[1,0.5]];portConstraint=eastwest;whiteSpace=wrap;html=1;" parent="rQWxWww5Zi0VN4n5RXvP-1" vertex="1">
          <mxGeometry y="118" width="175" height="26" as="geometry" />
        </mxCell>
        <mxCell id="rQWxWww5Zi0VN4n5RXvP-13" value="Start" style="swimlane;fontStyle=1;align=center;verticalAlign=top;childLayout=stackLayout;horizontal=1;startSize=26;horizontalStack=0;resizeParent=1;resizeParentMax=0;resizeLast=0;collapsible=1;marginBottom=0;whiteSpace=wrap;html=1;" parent="1" vertex="1">
          <mxGeometry x="893" y="630" width="160" height="60" as="geometry">
            <mxRectangle x="353" y="490" width="70" height="30" as="alternateBounds" />
          </mxGeometry>
        </mxCell>
        <mxCell id="rQWxWww5Zi0VN4n5RXvP-15" value="" style="line;strokeWidth=1;fillColor=none;align=left;verticalAlign=middle;spacingTop=-1;spacingLeft=3;spacingRight=3;rotatable=0;labelPosition=right;points=[];portConstraint=eastwest;strokeColor=inherit;" parent="rQWxWww5Zi0VN4n5RXvP-13" vertex="1">
          <mxGeometry y="26" width="160" height="8" as="geometry" />
        </mxCell>
        <mxCell id="rQWxWww5Zi0VN4n5RXvP-16" value="+ apply_start(p:Player): void" style="text;strokeColor=none;fillColor=none;align=left;verticalAlign=top;spacingLeft=4;spacingRight=4;overflow=hidden;rotatable=0;points=[[0,0.5],[1,0.5]];portConstraint=eastwest;whiteSpace=wrap;html=1;" parent="rQWxWww5Zi0VN4n5RXvP-13" vertex="1">
          <mxGeometry y="34" width="160" height="26" as="geometry" />
        </mxCell>
        <mxCell id="xzh4shcOTlSQ8mMk62qb-6" style="edgeStyle=orthogonalEdgeStyle;rounded=0;orthogonalLoop=1;jettySize=auto;html=1;endArrow=open;endFill=0;" parent="1" source="rQWxWww5Zi0VN4n5RXvP-20" target="rQWxWww5Zi0VN4n5RXvP-37" edge="1">
          <mxGeometry relative="1" as="geometry" />
        </mxCell>
        <mxCell id="rQWxWww5Zi0VN4n5RXvP-20" value="Event&lt;div&gt;&lt;br&gt;&lt;/div&gt;" style="swimlane;fontStyle=1;align=center;verticalAlign=top;childLayout=stackLayout;horizontal=1;startSize=26;horizontalStack=0;resizeParent=1;resizeParentMax=0;resizeLast=0;collapsible=1;marginBottom=0;whiteSpace=wrap;html=1;" parent="1" vertex="1">
          <mxGeometry x="1010" y="860" width="170" height="84" as="geometry" />
        </mxCell>
        <mxCell id="rQWxWww5Zi0VN4n5RXvP-21" value="&lt;div&gt;- var: type&lt;/div&gt;" style="text;strokeColor=none;fillColor=none;align=left;verticalAlign=top;spacingLeft=4;spacingRight=4;overflow=hidden;rotatable=0;points=[[0,0.5],[1,0.5]];portConstraint=eastwest;whiteSpace=wrap;html=1;" parent="rQWxWww5Zi0VN4n5RXvP-20" vertex="1">
          <mxGeometry y="26" width="170" height="24" as="geometry" />
        </mxCell>
        <mxCell id="rQWxWww5Zi0VN4n5RXvP-22" value="" style="line;strokeWidth=1;fillColor=none;align=left;verticalAlign=middle;spacingTop=-1;spacingLeft=3;spacingRight=3;rotatable=0;labelPosition=right;points=[];portConstraint=eastwest;strokeColor=inherit;" parent="rQWxWww5Zi0VN4n5RXvP-20" vertex="1">
          <mxGeometry y="50" width="170" height="8" as="geometry" />
        </mxCell>
        <mxCell id="rQWxWww5Zi0VN4n5RXvP-23" value="+ virtual get_item_type(): str" style="text;strokeColor=none;fillColor=none;align=left;verticalAlign=top;spacingLeft=4;spacingRight=4;overflow=hidden;rotatable=0;points=[[0,0.5],[1,0.5]];portConstraint=eastwest;whiteSpace=wrap;html=1;" parent="rQWxWww5Zi0VN4n5RXvP-20" vertex="1">
          <mxGeometry y="58" width="170" height="26" as="geometry" />
        </mxCell>
        <mxCell id="xzh4shcOTlSQ8mMk62qb-35" style="edgeStyle=orthogonalEdgeStyle;rounded=0;orthogonalLoop=1;jettySize=auto;html=1;" parent="1" source="rQWxWww5Zi0VN4n5RXvP-24" target="xzh4shcOTlSQ8mMk62qb-17" edge="1">
          <mxGeometry relative="1" as="geometry">
            <Array as="points">
              <mxPoint x="570" y="555" />
              <mxPoint x="570" y="937" />
            </Array>
          </mxGeometry>
        </mxCell>
        <mxCell id="rQWxWww5Zi0VN4n5RXvP-24" value="Player" style="swimlane;fontStyle=1;align=center;verticalAlign=top;childLayout=stackLayout;horizontal=1;startSize=26;horizontalStack=0;resizeParent=1;resizeParentMax=0;resizeLast=0;collapsible=1;marginBottom=0;whiteSpace=wrap;html=1;" parent="1" vertex="1">
          <mxGeometry x="598" y="407" width="216" height="210" as="geometry" />
        </mxCell>
        <mxCell id="rQWxWww5Zi0VN4n5RXvP-25" value="- playerID: int&lt;div&gt;- color: str&lt;br&gt;&lt;div&gt;- voters: int&lt;/div&gt;&lt;div&gt;- money: int&lt;/div&gt;&lt;div&gt;- current_square: shared_ptr&amp;lt;Square&amp;gt;&lt;/div&gt;&lt;div&gt;- inventory: Vector&amp;lt;Item&amp;gt;&lt;/div&gt;&lt;/div&gt;" style="text;strokeColor=none;fillColor=none;align=left;verticalAlign=top;spacingLeft=4;spacingRight=4;overflow=hidden;rotatable=0;points=[[0,0.5],[1,0.5]];portConstraint=eastwest;whiteSpace=wrap;html=1;" parent="rQWxWww5Zi0VN4n5RXvP-24" vertex="1">
          <mxGeometry y="26" width="216" height="94" as="geometry" />
        </mxCell>
        <mxCell id="rQWxWww5Zi0VN4n5RXvP-26" value="" style="line;strokeWidth=1;fillColor=none;align=left;verticalAlign=middle;spacingTop=-1;spacingLeft=3;spacingRight=3;rotatable=0;labelPosition=right;points=[];portConstraint=eastwest;strokeColor=inherit;" parent="rQWxWww5Zi0VN4n5RXvP-24" vertex="1">
          <mxGeometry y="120" width="216" height="8" as="geometry" />
        </mxCell>
        <mxCell id="rQWxWww5Zi0VN4n5RXvP-27" value="+ get_playerID(): int&lt;div&gt;+ get_playerColor(): str&lt;/div&gt;&lt;div&gt;+ check_square_occupied(): bool&lt;/div&gt;" style="text;strokeColor=none;fillColor=none;align=left;verticalAlign=top;spacingLeft=4;spacingRight=4;overflow=hidden;rotatable=0;points=[[0,0.5],[1,0.5]];portConstraint=eastwest;whiteSpace=wrap;html=1;" parent="rQWxWww5Zi0VN4n5RXvP-24" vertex="1">
          <mxGeometry y="128" width="216" height="82" as="geometry" />
        </mxCell>
        <mxCell id="xzh4shcOTlSQ8mMk62qb-21" style="edgeStyle=orthogonalEdgeStyle;rounded=0;orthogonalLoop=1;jettySize=auto;html=1;endArrow=open;endFill=0;" parent="1" source="rQWxWww5Zi0VN4n5RXvP-28" target="xzh4shcOTlSQ8mMk62qb-17" edge="1">
          <mxGeometry relative="1" as="geometry" />
        </mxCell>
        <mxCell id="xzh4shcOTlSQ8mMk62qb-24" style="edgeStyle=orthogonalEdgeStyle;rounded=0;orthogonalLoop=1;jettySize=auto;html=1;" parent="1" source="rQWxWww5Zi0VN4n5RXvP-28" target="xzh4shcOTlSQ8mMk62qb-1" edge="1">
          <mxGeometry relative="1" as="geometry" />
        </mxCell>
        <mxCell id="xzh4shcOTlSQ8mMk62qb-28" style="edgeStyle=orthogonalEdgeStyle;rounded=0;orthogonalLoop=1;jettySize=auto;html=1;" parent="1" source="rQWxWww5Zi0VN4n5RXvP-28" target="rQWxWww5Zi0VN4n5RXvP-24" edge="1">
          <mxGeometry relative="1" as="geometry" />
        </mxCell>
        <mxCell id="rQWxWww5Zi0VN4n5RXvP-28" value="Item" style="swimlane;fontStyle=1;align=center;verticalAlign=top;childLayout=stackLayout;horizontal=1;startSize=26;horizontalStack=0;resizeParent=1;resizeParentMax=0;resizeLast=0;collapsible=1;marginBottom=0;whiteSpace=wrap;html=1;" parent="1" vertex="1">
          <mxGeometry x="614" y="710" width="184" height="110" as="geometry" />
        </mxCell>
        <mxCell id="rQWxWww5Zi0VN4n5RXvP-29" value="- field: type" style="text;strokeColor=none;fillColor=none;align=left;verticalAlign=top;spacingLeft=4;spacingRight=4;overflow=hidden;rotatable=0;points=[[0,0.5],[1,0.5]];portConstraint=eastwest;whiteSpace=wrap;html=1;" parent="rQWxWww5Zi0VN4n5RXvP-28" vertex="1">
          <mxGeometry y="26" width="184" height="26" as="geometry" />
        </mxCell>
        <mxCell id="rQWxWww5Zi0VN4n5RXvP-30" value="" style="line;strokeWidth=1;fillColor=none;align=left;verticalAlign=middle;spacingTop=-1;spacingLeft=3;spacingRight=3;rotatable=0;labelPosition=right;points=[];portConstraint=eastwest;strokeColor=inherit;" parent="rQWxWww5Zi0VN4n5RXvP-28" vertex="1">
          <mxGeometry y="52" width="184" height="8" as="geometry" />
        </mxCell>
        <mxCell id="rQWxWww5Zi0VN4n5RXvP-31" value="+ use_item(): void&lt;div&gt;+ virtual get_item_type(): str&lt;/div&gt;" style="text;strokeColor=none;fillColor=none;align=left;verticalAlign=top;spacingLeft=4;spacingRight=4;overflow=hidden;rotatable=0;points=[[0,0.5],[1,0.5]];portConstraint=eastwest;whiteSpace=wrap;html=1;" parent="rQWxWww5Zi0VN4n5RXvP-28" vertex="1">
          <mxGeometry y="60" width="184" height="50" as="geometry" />
        </mxCell>
        <mxCell id="rQWxWww5Zi0VN4n5RXvP-32" value="Minigame" style="swimlane;fontStyle=1;align=center;verticalAlign=top;childLayout=stackLayout;horizontal=1;startSize=26;horizontalStack=0;resizeParent=1;resizeParentMax=0;resizeLast=0;collapsible=1;marginBottom=0;whiteSpace=wrap;html=1;" parent="1" vertex="1">
          <mxGeometry x="880" y="1050" width="200" height="86" as="geometry" />
        </mxCell>
        <mxCell id="rQWxWww5Zi0VN4n5RXvP-33" value="+ field: type" style="text;strokeColor=none;fillColor=none;align=left;verticalAlign=top;spacingLeft=4;spacingRight=4;overflow=hidden;rotatable=0;points=[[0,0.5],[1,0.5]];portConstraint=eastwest;whiteSpace=wrap;html=1;" parent="rQWxWww5Zi0VN4n5RXvP-32" vertex="1">
          <mxGeometry y="26" width="200" height="26" as="geometry" />
        </mxCell>
        <mxCell id="rQWxWww5Zi0VN4n5RXvP-34" value="" style="line;strokeWidth=1;fillColor=none;align=left;verticalAlign=middle;spacingTop=-1;spacingLeft=3;spacingRight=3;rotatable=0;labelPosition=right;points=[];portConstraint=eastwest;strokeColor=inherit;" parent="rQWxWww5Zi0VN4n5RXvP-32" vertex="1">
          <mxGeometry y="52" width="200" height="8" as="geometry" />
        </mxCell>
        <mxCell id="rQWxWww5Zi0VN4n5RXvP-35" value="+ override get_item_type(): str" style="text;strokeColor=none;fillColor=none;align=left;verticalAlign=top;spacingLeft=4;spacingRight=4;overflow=hidden;rotatable=0;points=[[0,0.5],[1,0.5]];portConstraint=eastwest;whiteSpace=wrap;html=1;" parent="rQWxWww5Zi0VN4n5RXvP-32" vertex="1">
          <mxGeometry y="60" width="200" height="26" as="geometry" />
        </mxCell>
        <mxCell id="rQWxWww5Zi0VN4n5RXvP-37" value="Poll" style="swimlane;fontStyle=1;align=center;verticalAlign=top;childLayout=stackLayout;horizontal=1;startSize=26;horizontalStack=0;resizeParent=1;resizeParentMax=0;resizeLast=0;collapsible=1;marginBottom=0;whiteSpace=wrap;html=1;" parent="1" vertex="1">
          <mxGeometry x="1110" y="1050" width="200" height="86" as="geometry" />
        </mxCell>
        <mxCell id="rQWxWww5Zi0VN4n5RXvP-38" value="+ field: type" style="text;strokeColor=none;fillColor=none;align=left;verticalAlign=top;spacingLeft=4;spacingRight=4;overflow=hidden;rotatable=0;points=[[0,0.5],[1,0.5]];portConstraint=eastwest;whiteSpace=wrap;html=1;" parent="rQWxWww5Zi0VN4n5RXvP-37" vertex="1">
          <mxGeometry y="26" width="200" height="26" as="geometry" />
        </mxCell>
        <mxCell id="rQWxWww5Zi0VN4n5RXvP-39" value="" style="line;strokeWidth=1;fillColor=none;align=left;verticalAlign=middle;spacingTop=-1;spacingLeft=3;spacingRight=3;rotatable=0;labelPosition=right;points=[];portConstraint=eastwest;strokeColor=inherit;" parent="rQWxWww5Zi0VN4n5RXvP-37" vertex="1">
          <mxGeometry y="52" width="200" height="8" as="geometry" />
        </mxCell>
        <mxCell id="rQWxWww5Zi0VN4n5RXvP-40" value="+ override get_item_type(): str" style="text;strokeColor=none;fillColor=none;align=left;verticalAlign=top;spacingLeft=4;spacingRight=4;overflow=hidden;rotatable=0;points=[[0,0.5],[1,0.5]];portConstraint=eastwest;whiteSpace=wrap;html=1;" parent="rQWxWww5Zi0VN4n5RXvP-37" vertex="1">
          <mxGeometry y="60" width="200" height="26" as="geometry" />
        </mxCell>
        <mxCell id="xzh4shcOTlSQ8mMk62qb-38" style="edgeStyle=orthogonalEdgeStyle;rounded=0;orthogonalLoop=1;jettySize=auto;html=1;" parent="1" source="xzh4shcOTlSQ8mMk62qb-1" target="rQWxWww5Zi0VN4n5RXvP-1" edge="1">
          <mxGeometry relative="1" as="geometry">
            <Array as="points">
              <mxPoint x="1270" y="512" />
            </Array>
          </mxGeometry>
        </mxCell>
        <mxCell id="xzh4shcOTlSQ8mMk62qb-1" value="Store" style="swimlane;fontStyle=1;align=center;verticalAlign=top;childLayout=stackLayout;horizontal=1;startSize=26;horizontalStack=0;resizeParent=1;resizeParentMax=0;resizeLast=0;collapsible=1;marginBottom=0;whiteSpace=wrap;html=1;" parent="1" vertex="1">
          <mxGeometry x="1190" y="722" width="160" height="86" as="geometry" />
        </mxCell>
        <mxCell id="xzh4shcOTlSQ8mMk62qb-2" value="- items: array&amp;lt;Item&amp;gt;" style="text;strokeColor=none;fillColor=none;align=left;verticalAlign=top;spacingLeft=4;spacingRight=4;overflow=hidden;rotatable=0;points=[[0,0.5],[1,0.5]];portConstraint=eastwest;whiteSpace=wrap;html=1;" parent="xzh4shcOTlSQ8mMk62qb-1" vertex="1">
          <mxGeometry y="26" width="160" height="26" as="geometry" />
        </mxCell>
        <mxCell id="xzh4shcOTlSQ8mMk62qb-3" value="" style="line;strokeWidth=1;fillColor=none;align=left;verticalAlign=middle;spacingTop=-1;spacingLeft=3;spacingRight=3;rotatable=0;labelPosition=right;points=[];portConstraint=eastwest;strokeColor=inherit;" parent="xzh4shcOTlSQ8mMk62qb-1" vertex="1">
          <mxGeometry y="52" width="160" height="8" as="geometry" />
        </mxCell>
        <mxCell id="xzh4shcOTlSQ8mMk62qb-4" value="+ method(type): type" style="text;strokeColor=none;fillColor=none;align=left;verticalAlign=top;spacingLeft=4;spacingRight=4;overflow=hidden;rotatable=0;points=[[0,0.5],[1,0.5]];portConstraint=eastwest;whiteSpace=wrap;html=1;" parent="xzh4shcOTlSQ8mMk62qb-1" vertex="1">
          <mxGeometry y="60" width="160" height="26" as="geometry" />
        </mxCell>
        <mxCell id="xzh4shcOTlSQ8mMk62qb-5" style="edgeStyle=orthogonalEdgeStyle;rounded=0;orthogonalLoop=1;jettySize=auto;html=1;entryX=0.546;entryY=0.02;entryDx=0;entryDy=0;entryPerimeter=0;endArrow=open;endFill=0;" parent="1" source="rQWxWww5Zi0VN4n5RXvP-20" target="rQWxWww5Zi0VN4n5RXvP-32" edge="1">
          <mxGeometry relative="1" as="geometry" />
        </mxCell>
        <mxCell id="xzh4shcOTlSQ8mMk62qb-17" value="Billboard" style="swimlane;fontStyle=1;align=center;verticalAlign=top;childLayout=stackLayout;horizontal=1;startSize=26;horizontalStack=0;resizeParent=1;resizeParentMax=0;resizeLast=0;collapsible=1;marginBottom=0;whiteSpace=wrap;html=1;" parent="1" vertex="1">
          <mxGeometry x="612" y="860" width="188" height="154" as="geometry" />
        </mxCell>
        <mxCell id="xzh4shcOTlSQ8mMk62qb-18" value="&lt;div&gt;- owner: Player&lt;/div&gt;- text: str&lt;div&gt;- image: Image&lt;/div&gt;" style="text;strokeColor=none;fillColor=none;align=left;verticalAlign=top;spacingLeft=4;spacingRight=4;overflow=hidden;rotatable=0;points=[[0,0.5],[1,0.5]];portConstraint=eastwest;whiteSpace=wrap;html=1;" parent="xzh4shcOTlSQ8mMk62qb-17" vertex="1">
          <mxGeometry y="26" width="188" height="94" as="geometry" />
        </mxCell>
        <mxCell id="xzh4shcOTlSQ8mMk62qb-19" value="" style="line;strokeWidth=1;fillColor=none;align=left;verticalAlign=middle;spacingTop=-1;spacingLeft=3;spacingRight=3;rotatable=0;labelPosition=right;points=[];portConstraint=eastwest;strokeColor=inherit;" parent="xzh4shcOTlSQ8mMk62qb-17" vertex="1">
          <mxGeometry y="120" width="188" height="8" as="geometry" />
        </mxCell>
        <mxCell id="xzh4shcOTlSQ8mMk62qb-20" value="+ override get_item_type(): str" style="text;strokeColor=none;fillColor=none;align=left;verticalAlign=top;spacingLeft=4;spacingRight=4;overflow=hidden;rotatable=0;points=[[0,0.5],[1,0.5]];portConstraint=eastwest;whiteSpace=wrap;html=1;" parent="xzh4shcOTlSQ8mMk62qb-17" vertex="1">
          <mxGeometry y="128" width="188" height="26" as="geometry" />
        </mxCell>
        <mxCell id="PZ9e7S2tOT1WXYwSudJi-15" style="edgeStyle=orthogonalEdgeStyle;rounded=0;orthogonalLoop=1;jettySize=auto;html=1;" parent="1" source="PZ9e7S2tOT1WXYwSudJi-1" target="PZ9e7S2tOT1WXYwSudJi-6" edge="1">
          <mxGeometry relative="1" as="geometry" />
        </mxCell>
        <mxCell id="PZ9e7S2tOT1WXYwSudJi-22" style="edgeStyle=orthogonalEdgeStyle;rounded=0;orthogonalLoop=1;jettySize=auto;html=1;endArrow=open;endFill=0;" parent="1" source="PZ9e7S2tOT1WXYwSudJi-1" target="PZ9e7S2tOT1WXYwSudJi-18" edge="1">
          <mxGeometry relative="1" as="geometry" />
        </mxCell>
        <mxCell id="PZ9e7S2tOT1WXYwSudJi-28" style="edgeStyle=orthogonalEdgeStyle;rounded=0;orthogonalLoop=1;jettySize=auto;html=1;endArrow=open;endFill=0;" parent="1" source="PZ9e7S2tOT1WXYwSudJi-1" target="PZ9e7S2tOT1WXYwSudJi-24" edge="1">
          <mxGeometry relative="1" as="geometry" />
        </mxCell>
        <mxCell id="DEKb39PJP8EMTKMLp5cj-5" style="edgeStyle=orthogonalEdgeStyle;rounded=0;orthogonalLoop=1;jettySize=auto;html=1;endArrow=open;endFill=0;" edge="1" parent="1" source="PZ9e7S2tOT1WXYwSudJi-1" target="DEKb39PJP8EMTKMLp5cj-1">
          <mxGeometry relative="1" as="geometry" />
        </mxCell>
        <mxCell id="PZ9e7S2tOT1WXYwSudJi-1" value="Scene" style="swimlane;fontStyle=1;align=center;verticalAlign=top;childLayout=stackLayout;horizontal=1;startSize=26;horizontalStack=0;resizeParent=1;resizeParentMax=0;resizeLast=0;collapsible=1;marginBottom=0;whiteSpace=wrap;html=1;" parent="1" vertex="1">
          <mxGeometry x="790" y="70" width="310" height="110" as="geometry" />
        </mxCell>
        <mxCell id="PZ9e7S2tOT1WXYwSudJi-3" value="" style="line;strokeWidth=1;fillColor=none;align=left;verticalAlign=middle;spacingTop=-1;spacingLeft=3;spacingRight=3;rotatable=0;labelPosition=right;points=[];portConstraint=eastwest;strokeColor=inherit;" parent="PZ9e7S2tOT1WXYwSudJi-1" vertex="1">
          <mxGeometry y="26" width="310" height="8" as="geometry" />
        </mxCell>
        <mxCell id="PZ9e7S2tOT1WXYwSudJi-4" value="+ virtual handle_input(): void = 0&lt;div&gt;+ virtual update(double delta_time): void = 0&lt;/div&gt;&lt;div&gt;+ virtual render(): void = 0&lt;/div&gt;&lt;div&gt;+ virtual get_next_scene(): unique_ptr&amp;lt;Scene&amp;gt; = 0&lt;/div&gt;" style="text;strokeColor=none;fillColor=none;align=left;verticalAlign=top;spacingLeft=4;spacingRight=4;overflow=hidden;rotatable=0;points=[[0,0.5],[1,0.5]];portConstraint=eastwest;whiteSpace=wrap;html=1;" parent="PZ9e7S2tOT1WXYwSudJi-1" vertex="1">
          <mxGeometry y="34" width="310" height="76" as="geometry" />
        </mxCell>
        <mxCell id="PZ9e7S2tOT1WXYwSudJi-6" value="&lt;div&gt;Main&lt;/div&gt;" style="swimlane;fontStyle=1;align=center;verticalAlign=top;childLayout=stackLayout;horizontal=1;startSize=26;horizontalStack=0;resizeParent=1;resizeParentMax=0;resizeLast=0;collapsible=1;marginBottom=0;whiteSpace=wrap;html=1;" parent="1" vertex="1">
          <mxGeometry x="530" y="82" width="160" height="86" as="geometry" />
        </mxCell>
        <mxCell id="PZ9e7S2tOT1WXYwSudJi-7" value="- current_scene: Scene" style="text;strokeColor=none;fillColor=none;align=left;verticalAlign=top;spacingLeft=4;spacingRight=4;overflow=hidden;rotatable=0;points=[[0,0.5],[1,0.5]];portConstraint=eastwest;whiteSpace=wrap;html=1;" parent="PZ9e7S2tOT1WXYwSudJi-6" vertex="1">
          <mxGeometry y="26" width="160" height="26" as="geometry" />
        </mxCell>
        <mxCell id="PZ9e7S2tOT1WXYwSudJi-8" value="" style="line;strokeWidth=1;fillColor=none;align=left;verticalAlign=middle;spacingTop=-1;spacingLeft=3;spacingRight=3;rotatable=0;labelPosition=right;points=[];portConstraint=eastwest;strokeColor=inherit;" parent="PZ9e7S2tOT1WXYwSudJi-6" vertex="1">
          <mxGeometry y="52" width="160" height="8" as="geometry" />
        </mxCell>
        <mxCell id="PZ9e7S2tOT1WXYwSudJi-9" value="+ run_main_loop(): void" style="text;strokeColor=none;fillColor=none;align=left;verticalAlign=top;spacingLeft=4;spacingRight=4;overflow=hidden;rotatable=0;points=[[0,0.5],[1,0.5]];portConstraint=eastwest;whiteSpace=wrap;html=1;" parent="PZ9e7S2tOT1WXYwSudJi-6" vertex="1">
          <mxGeometry y="60" width="160" height="26" as="geometry" />
        </mxCell>
        <mxCell id="PZ9e7S2tOT1WXYwSudJi-18" value="TitleMenu" style="swimlane;fontStyle=1;align=center;verticalAlign=top;childLayout=stackLayout;horizontal=1;startSize=26;horizontalStack=0;resizeParent=1;resizeParentMax=0;resizeLast=0;collapsible=1;marginBottom=0;whiteSpace=wrap;html=1;" parent="1" vertex="1">
          <mxGeometry x="1170" y="210" width="240" height="190" as="geometry" />
        </mxCell>
        <mxCell id="PZ9e7S2tOT1WXYwSudJi-19" value="+ field: type" style="text;strokeColor=none;fillColor=none;align=left;verticalAlign=top;spacingLeft=4;spacingRight=4;overflow=hidden;rotatable=0;points=[[0,0.5],[1,0.5]];portConstraint=eastwest;whiteSpace=wrap;html=1;" parent="PZ9e7S2tOT1WXYwSudJi-18" vertex="1">
          <mxGeometry y="26" width="240" height="26" as="geometry" />
        </mxCell>
        <mxCell id="PZ9e7S2tOT1WXYwSudJi-20" value="" style="line;strokeWidth=1;fillColor=none;align=left;verticalAlign=middle;spacingTop=-1;spacingLeft=3;spacingRight=3;rotatable=0;labelPosition=right;points=[];portConstraint=eastwest;strokeColor=inherit;" parent="PZ9e7S2tOT1WXYwSudJi-18" vertex="1">
          <mxGeometry y="52" width="240" height="8" as="geometry" />
        </mxCell>
        <mxCell id="PZ9e7S2tOT1WXYwSudJi-21" value="+ handle_input(): void&lt;div&gt;+ update(double delta_time): void&lt;/div&gt;&lt;div&gt;+ render(): void&lt;/div&gt;&lt;div&gt;+ get_next_scene(): unique_ptr&amp;lt;Scene&amp;gt;&lt;/div&gt;" style="text;strokeColor=none;fillColor=none;align=left;verticalAlign=top;spacingLeft=4;spacingRight=4;overflow=hidden;rotatable=0;points=[[0,0.5],[1,0.5]];portConstraint=eastwest;whiteSpace=wrap;html=1;" parent="PZ9e7S2tOT1WXYwSudJi-18" vertex="1">
          <mxGeometry y="60" width="240" height="130" as="geometry" />
        </mxCell>
        <mxCell id="PZ9e7S2tOT1WXYwSudJi-24" value="ClassicMode" style="swimlane;fontStyle=1;align=center;verticalAlign=top;childLayout=stackLayout;horizontal=1;startSize=26;horizontalStack=0;resizeParent=1;resizeParentMax=0;resizeLast=0;collapsible=1;marginBottom=0;whiteSpace=wrap;html=1;" parent="1" vertex="1">
          <mxGeometry x="809" y="210" width="272" height="170" as="geometry" />
        </mxCell>
        <mxCell id="PZ9e7S2tOT1WXYwSudJi-25" value="+ player_counter: int&amp;nbsp;&lt;div&gt;etc...&lt;/div&gt;" style="text;strokeColor=none;fillColor=none;align=left;verticalAlign=top;spacingLeft=4;spacingRight=4;overflow=hidden;rotatable=0;points=[[0,0.5],[1,0.5]];portConstraint=eastwest;whiteSpace=wrap;html=1;" parent="PZ9e7S2tOT1WXYwSudJi-24" vertex="1">
          <mxGeometry y="26" width="272" height="44" as="geometry" />
        </mxCell>
        <mxCell id="PZ9e7S2tOT1WXYwSudJi-26" value="" style="line;strokeWidth=1;fillColor=none;align=left;verticalAlign=middle;spacingTop=-1;spacingLeft=3;spacingRight=3;rotatable=0;labelPosition=right;points=[];portConstraint=eastwest;strokeColor=inherit;" parent="PZ9e7S2tOT1WXYwSudJi-24" vertex="1">
          <mxGeometry y="70" width="272" height="8" as="geometry" />
        </mxCell>
        <mxCell id="PZ9e7S2tOT1WXYwSudJi-27" value="+ handle_input(): void&lt;div&gt;+ update(double delta_time): void&lt;/div&gt;&lt;div&gt;+ render(): void&lt;/div&gt;&lt;div&gt;+ get_next_scene(): unique_ptr&amp;lt;Scene&amp;gt;&lt;/div&gt;" style="text;strokeColor=none;fillColor=none;align=left;verticalAlign=top;spacingLeft=4;spacingRight=4;overflow=hidden;rotatable=0;points=[[0,0.5],[1,0.5]];portConstraint=eastwest;whiteSpace=wrap;html=1;" parent="PZ9e7S2tOT1WXYwSudJi-24" vertex="1">
          <mxGeometry y="78" width="272" height="92" as="geometry" />
        </mxCell>
        <mxCell id="DEKb39PJP8EMTKMLp5cj-1" value="SettingsMenu" style="swimlane;fontStyle=1;align=center;verticalAlign=top;childLayout=stackLayout;horizontal=1;startSize=26;horizontalStack=0;resizeParent=1;resizeParentMax=0;resizeLast=0;collapsible=1;marginBottom=0;whiteSpace=wrap;html=1;" vertex="1" parent="1">
          <mxGeometry x="1440" y="210" width="240" height="190" as="geometry" />
        </mxCell>
        <mxCell id="DEKb39PJP8EMTKMLp5cj-2" value="+ field: type" style="text;strokeColor=none;fillColor=none;align=left;verticalAlign=top;spacingLeft=4;spacingRight=4;overflow=hidden;rotatable=0;points=[[0,0.5],[1,0.5]];portConstraint=eastwest;whiteSpace=wrap;html=1;" vertex="1" parent="DEKb39PJP8EMTKMLp5cj-1">
          <mxGeometry y="26" width="240" height="26" as="geometry" />
        </mxCell>
        <mxCell id="DEKb39PJP8EMTKMLp5cj-3" value="" style="line;strokeWidth=1;fillColor=none;align=left;verticalAlign=middle;spacingTop=-1;spacingLeft=3;spacingRight=3;rotatable=0;labelPosition=right;points=[];portConstraint=eastwest;strokeColor=inherit;" vertex="1" parent="DEKb39PJP8EMTKMLp5cj-1">
          <mxGeometry y="52" width="240" height="8" as="geometry" />
        </mxCell>
        <mxCell id="DEKb39PJP8EMTKMLp5cj-4" value="+ handle_input(): void&lt;div&gt;+ update(double delta_time): void&lt;/div&gt;&lt;div&gt;+ render(): void&lt;/div&gt;&lt;div&gt;+ get_next_scene(): unique_ptr&amp;lt;Scene&amp;gt;&lt;/div&gt;" style="text;strokeColor=none;fillColor=none;align=left;verticalAlign=top;spacingLeft=4;spacingRight=4;overflow=hidden;rotatable=0;points=[[0,0.5],[1,0.5]];portConstraint=eastwest;whiteSpace=wrap;html=1;" vertex="1" parent="DEKb39PJP8EMTKMLp5cj-1">
          <mxGeometry y="60" width="240" height="130" as="geometry" />
        </mxCell>
      </root>
    </mxGraphModel>
  </diagram>
</mxfile>
